<!-- Generated by IcoMoon.io -->
<svg version="1.1" xmlns="http://www.w3.org/2000/svg" width="768" height="768" viewBox="0 0 768 768" fill="currentColor">
<title></title>
<g id="icomoon-ignore">
</g>
<path d="M416 32h-64v80h-192c-17.665 0.011-31.98 14.334-31.98 32 0 4.276 0.838 8.356 2.361 12.085l-0.077-0.214 27.232 68.128-27.232 68.128c-1.445 3.515-2.284 7.596-2.284 11.872 0 17.666 14.315 31.988 31.978 32h192.001v32h-160c-13.389 0.009-24.853 8.239-29.619 19.914l-0.077 0.214-32 80c-1.445 3.515-2.284 7.596-2.284 11.872s0.838 8.357 2.361 12.086l-0.077-0.214 32 80c4.843 11.89 16.307 20.12 29.695 20.128h160.001v128h64v-128h192c17.665-0.011 31.98-14.334 31.98-32 0-4.276-0.839-8.356-2.361-12.086l0.077 0.214-27.2-68.128 27.232-68.128c1.445-3.515 2.284-7.596 2.284-11.872 0-17.673-14.327-32-32-32-0.004 0-0.008 0-0.012 0h-191.999v-32h160c13.389-0.009 24.853-8.239 29.619-19.914l0.077-0.214 32-80c1.445-3.515 2.284-7.596 2.284-11.872s-0.839-8.357-2.361-12.085l0.077 0.214-32-80c-4.843-11.89-16.307-20.119-29.695-20.128h-160.001v-80zM221.696 212.128l-14.432-36.128h347.072l19.2 48-19.2 48h-347.072l14.432-36.128c1.445-3.515 2.284-7.596 2.284-11.872s-0.838-8.357-2.361-12.085l0.077 0.214zM213.664 432h347.072l-14.432 36.128c-1.445 3.515-2.284 7.596-2.284 11.872s0.838 8.357 2.361 12.086l-0.077-0.214 14.432 36.128h-347.072l-19.2-48 19.2-48z"></path>
</svg>
