<?xml version="1.0" standalone="no"?>
<!DOCTYPE svg PUBLIC "-//W3C//DTD SVG 20010904//EN"
 "http://www.w3.org/TR/2001/REC-SVG-20010904/DTD/svg10.dtd">
<svg version="1.0" xmlns="http://www.w3.org/2000/svg"
 width="24" height="24" viewBox="0 0 512.000000 512.000000"
 preserveAspectRatio="xMidYMid meet">

<g transform="translate(0.000000,512.000000) scale(0.100000,-0.100000)"
fill="#A1A3A8" stroke="none">
<path d="M2393 5105 c-357 -65 -653 -318 -768 -656 -28 -80 -55 -228 -55 -296
l0 -42 -267 -3 c-266 -3 -268 -3 -325 -30 -107 -50 -185 -146 -208 -254 -5
-27 -62 -708 -126 -1514 -108 -1361 -116 -1472 -106 -1565 37 -341 260 -606
599 -712 l88 -28 1335 0 1335 0 88 28 c339 106 561 371 599 712 10 93 3 202
-106 1565 -64 806 -121 1487 -126 1514 -23 108 -101 204 -208 254 -57 27 -59
27 -324 30 l-268 3 0 42 c0 67 -27 216 -53 292 -99 290 -331 523 -618 620
-154 53 -334 68 -486 40z m304 -301 c271 -56 481 -266 537 -537 9 -42 16 -94
16 -117 l0 -40 -690 0 -690 0 0 40 c0 23 7 75 16 117 77 373 441 614 811 537z
m-1127 -1191 c0 -178 2 -201 21 -239 21 -45 81 -84 129 -84 44 0 105 38 128
79 21 36 22 52 22 240 l0 201 690 0 690 0 0 -201 c0 -188 1 -204 22 -240 23
-41 84 -79 128 -79 48 0 108 39 129 84 19 38 21 61 21 239 l0 197 235 0 c276
0 268 3 278 -101 3 -35 57 -701 118 -1479 101 -1274 111 -1422 101 -1485 -34
-203 -202 -382 -403 -430 -96 -22 -2542 -22 -2638 0 -201 48 -369 227 -403
430 -10 63 0 212 101 1485 61 778 115 1444 118 1479 10 104 2 101 278 101
l235 0 0 -197z"/>
<path d="M1951 2692 c-70 -35 -101 -124 -66 -193 10 -19 121 -139 248 -267
l231 -232 -236 -238 c-130 -130 -242 -250 -247 -265 -27 -71 0 -147 65 -184
94 -54 125 -36 402 240 l232 231 233 -231 c127 -127 246 -238 264 -247 122
-61 258 75 197 197 -9 18 -120 137 -247 264 l-232 233 232 232 c127 128 238
247 247 265 42 84 -9 192 -100 209 -83 15 -92 10 -352 -249 l-242 -241 -238
236 c-130 130 -250 242 -265 247 -41 16 -87 13 -126 -7z"/>
</g>
</svg>