<?xml version="1.0" standalone="no"?>
<!DOCTYPE svg PUBLIC "-//W3C//DTD SVG 20010904//EN"
 "http://www.w3.org/TR/2001/REC-SVG-20010904/DTD/svg10.dtd">
<svg version="1.0" xmlns="http://www.w3.org/2000/svg"
 width="500.000000pt" height="500.000000pt" viewBox="0 0 500.000000 500.000000"
 preserveAspectRatio="xMidYMid meet">
<metadata>
Created by potrace 1.14, written by Peter Selinger 2001-2017
</metadata>
<g transform="translate(0.000000,500.000000) scale(0.100000,-0.100000)"
fill="#000000" stroke="none">
<path d="M2403 4830 c-266 -175 -453 -476 -489 -785 -34 -295 44 -582 222
-815 57 -75 146 -163 222 -218 40 -30 62 -53 63 -66 2 -89 0 -1119 -3 -1121
-2 -2 -30 17 -63 42 -205 155 -462 257 -710 280 -212 20 -416 -5 -551 -68 -87
-41 -87 -41 -64 -145 125 -574 463 -1091 984 -1507 115 -91 318 -227 420 -281
l69 -36 66 36 c330 181 689 487 927 791 240 307 392 626 475 997 22 100 21
105 -43 137 -175 89 -470 108 -748 48 -185 -40 -458 -176 -572 -284 l-28 -26
-1 36 c-1 51 0 401 1 428 0 18 22 33 120 81 l119 60 78 -26 c110 -37 126 -40
233 -44 181 -5 350 51 490 164 173 139 278 358 276 572 l-1 65 -75 37 c-343
170 -771 44 -969 -287 -46 -75 -89 -200 -97 -278 l-6 -63 -81 -42 c-44 -24
-81 -41 -83 -40 -2 2 -4 114 -5 248 l-2 244 29 21 c585 409 657 1226 150 1718
-61 59 -236 187 -256 187 -4 0 -47 -27 -97 -60z m156 -162 c238 -180 373 -447
375 -743 1 -150 -6 -200 -44 -317 -48 -151 -157 -317 -277 -421 l-33 -29 -1
259 c0 142 -1 287 -2 323 l-2 65 -75 0 -75 0 -2 -319 c-1 -175 -4 -320 -6
-322 -7 -8 -140 135 -184 197 -60 86 -95 158 -127 259 -32 101 -40 153 -40
280 -1 125 8 189 40 291 59 189 163 339 319 464 38 30 71 55 74 55 2 0 29 -19
60 -42z m1059 -1579 c30 -6 69 -17 88 -25 33 -14 34 -17 30 -53 -8 -68 -27
-124 -67 -201 -85 -161 -229 -266 -420 -306 -34 -7 -157 -6 -204 2 -22 3 -63
15 -92 26 -52 19 -53 20 -47 56 37 264 250 477 508 511 60 8 130 5 204 -10z
m-1918 -1105 c251 -43 493 -163 663 -327 28 -28 29 -29 11 -46 -22 -21 -75
-78 -193 -209 l-83 -92 -52 43 c-272 232 -580 387 -766 387 -38 0 -39 0 -54
58 -9 31 -23 77 -30 102 -8 25 -12 48 -10 51 4 7 115 35 164 42 65 9 274 4
350 -9z m2000 3 c14 -4 45 -12 69 -18 l43 -12 -6 -41 c-4 -23 -16 -71 -27
-108 -21 -67 -21 -68 -57 -69 -135 -3 -289 -57 -465 -163 -266 -160 -523 -391
-852 -767 -16 -19 -77 -92 -134 -164 -57 -71 -107 -131 -110 -132 -7 -3 -140
107 -241 199 -71 65 -72 68 -57 90 14 21 190 223 344 394 35 40 73 83 84 95
61 72 207 226 295 314 205 204 406 315 669 370 93 20 134 23 265 21 85 -2 166
-6 180 -9z m-8 -418 c-2 -8 -24 -57 -50 -109 -161 -332 -403 -629 -732 -896
-136 -110 -381 -274 -410 -274 -11 0 -178 99 -203 120 -11 9 104 157 262 339
378 435 760 735 1040 817 81 24 98 25 93 3z m-2312 0 c127 -29 357 -162 533
-308 42 -35 77 -66 77 -69 0 -5 -158 -189 -215 -250 l-40 -43 -76 93 c-127
157 -245 342 -319 503 -43 94 -44 93 40 74z"/>
<path d="M1322 3235 c-46 -12 -113 -37 -150 -56 l-67 -35 3 -89 c6 -213 104
-410 272 -546 237 -193 582 -220 846 -67 31 18 31 18 28 96 -9 196 -89 377
-226 508 -146 141 -299 205 -503 209 -99 2 -135 -1 -203 -20z m333 -151 c188
-45 360 -208 415 -394 10 -36 22 -81 24 -101 5 -35 4 -38 -34 -53 -66 -26
-129 -37 -215 -37 -288 1 -538 218 -579 503 l-7 46 57 21 c31 12 82 24 113 28
31 3 57 7 59 8 7 6 108 -7 167 -21z"/>
</g>
</svg>
